<svg xmlns="http://www.w3.org/2000/svg" width="108.128" height="37.34" viewBox="0 0 108.128 37.34">
  <g id="Groupe_224" data-name="Groupe 224" transform="translate(-36.754 -31.467)">
    <path id="Tracé_341" data-name="Tracé 341" d="M36.754,47.956c.606-.2,1.207-.426,1.819-.612a30.809,30.809,0,0,1,5.1-1.109,11.579,11.579,0,0,1,2.618-.084l.038,0c.422.039.43.042.558-.363a7.835,7.835,0,0,0,.293-2.855c-.034-.582-.149-.475.465-.518a4.228,4.228,0,0,1,2.309.592,2.289,2.289,0,0,0,.986.352.942.942,0,0,0,.635-.2.328.328,0,0,0,.124-.432,3.564,3.564,0,0,0-.33-.569,3.638,3.638,0,0,1-.629-2.506,8.349,8.349,0,0,1,1.508-4.095c.3-.466.644-.9.967-1.351a6.588,6.588,0,0,0,1.108-2.152c.048-.182.077-.368.122-.592a.728.728,0,0,1,.223.088,1.178,1.178,0,0,1,.261.3,17.512,17.512,0,0,0,2.118,2.771A22.937,22.937,0,0,1,60.034,39.3c.183.358.364.718.538,1.081a.2.2,0,0,0,.233.134,4.067,4.067,0,0,0,1.265-.355,2.254,2.254,0,0,0,.784-.665,7.314,7.314,0,0,1,.572-.651c.152-.155.223-.153.307.05a3.458,3.458,0,0,1,.3.965,3.882,3.882,0,0,0,1.643,2.751,2.07,2.07,0,0,0,.533.271.233.233,0,0,0,.214-.078,2.286,2.286,0,0,1,1.8-1.388,11.687,11.687,0,0,1,3.132-.259,14.658,14.658,0,0,1,3.374.468,3.154,3.154,0,0,0,1.816-.116,1.142,1.142,0,0,1-.01.7,4.021,4.021,0,0,1-.711,1.449c-.686.909-1.4,1.8-2.113,2.685-.578.714-1.181,1.409-1.771,2.113a5.29,5.29,0,0,1-1.22,1.189,1.261,1.261,0,0,0,.837.766,6.179,6.179,0,0,0,.854.127c.317.041.639.056.95.122a.973.973,0,0,1,.39.246.191.191,0,0,1-.022.332c-.345.241-.676.506-1.041.712a4.992,4.992,0,0,0-1.5,1.154,3.692,3.692,0,0,0-.855,1.82.719.719,0,0,0,.252.74c.244.189.485.381.737.559a6.021,6.021,0,0,1,2.03,2.463,5.373,5.373,0,0,1,.4,1.986c.032.672.008,1.348.049,2.019a10.605,10.605,0,0,0,.2,1.09,5.526,5.526,0,0,1,.1.78c.007.274-.05.328-.319.316-.571-.027-1.147-.04-1.711-.123a31.373,31.373,0,0,1-5.747-1.387c-.687-.238-1.354-.539-2.018-.837a3.611,3.611,0,0,1-.693-.453c-.116-.089-.187-.075-.267.023q-.268.329-.532.662c-.214.272-.414.556-.641.817a.645.645,0,0,1-1.019.073.734.734,0,0,1-.308-.637c.015-2.312.008-4.624.008-6.936v-.247c-.081.019-.141.03-.2.046q-3.02.855-6.041,1.708c-.143.04-.213.1-.2.257.014.2.008.4,0,.6a.147.147,0,0,0,.151.172,2.7,2.7,0,0,1,.315.057,1.989,1.989,0,0,1,1.6,1.9c.03.294.045.59.047.885.006.85,0,1.7.006,2.551a.529.529,0,0,1-.17.413,12.316,12.316,0,0,1-1.675,1.437,27.121,27.121,0,0,1-3.414,2.119,8.9,8.9,0,0,1-2.58.814c-.126.02-.175-.018-.215-.136a9.7,9.7,0,0,1-.474-2.3c-.083-.977-.128-1.959-.146-2.939a10.982,10.982,0,0,1,.3-2.543,1.824,1.824,0,0,0-1.438-2.015,7.784,7.784,0,0,1-1.166-.293,1.268,1.268,0,0,1-.253-.125.242.242,0,0,1-.126-.358c.152-.3.3-.595.466-.88.157-.264.346-.51.516-.768a2.018,2.018,0,0,0,.357-1.3c-.032-.388-.069-.775-.1-1.168-.265.063-.5.138-.748.176a4.118,4.118,0,0,1-2.242-.367A12.323,12.323,0,0,1,40,51.489a25.911,25.911,0,0,1-3.047-3.274c-.062-.077-.133-.147-.2-.221Zm21.739.556a2.516,2.516,0,1,0-.007,5.032,2.516,2.516,0,0,0,.007-5.032Z" fill="#fff"/>
    <g id="Groupe_224-2" data-name="Groupe 224" transform="translate(83.087 48.373)">
      <path id="Tracé_342" data-name="Tracé 342" d="M332.212,141.914a1.3,1.3,0,0,1-1.292-1.307,1.318,1.318,0,0,1,1.323-1.307,1.288,1.288,0,0,1,1.276,1.307A1.3,1.3,0,0,1,332.212,141.914Zm-1.055,8.979v-7.923l2.111-.331v8.254Z" transform="translate(-330.92 -139.22)" fill="#fff"/>
      <path id="Tracé_343" data-name="Tracé 343" d="M364.617,168.67v-5.245c0-.914-.158-1.181-.709-1.181a2.461,2.461,0,0,0-1.465.725v5.7h-2.111v-5.844a5.814,5.814,0,0,0-.284-1.89l1.875-.536a2.065,2.065,0,0,1,.3,1.008,9.331,9.331,0,0,1,.929-.6,3.328,3.328,0,0,1,1.449-.347,2.006,2.006,0,0,1,1.938,1.166,3.257,3.257,0,0,1,.157,1.15v5.891Z" transform="translate(-355.461 -156.998)" fill="#fff"/>
      <path id="Tracé_344" data-name="Tracé 344" d="M418.069,140.61a1.768,1.768,0,0,0-.866-.268.828.828,0,0,0-.882.913v1.15h2.048l-.536,1.449h-1.5v6.616h-2.063v-6.616h-.725v-1.449h.772a8.252,8.252,0,0,1-.079-1.1,2.323,2.323,0,0,1,2.6-2.5,3.643,3.643,0,0,1,1.906.5Z" transform="translate(-400.533 -138.799)" fill="#fff"/>
      <path id="Tracé_345" data-name="Tracé 345" d="M452.733,167.977a3.294,3.294,0,0,1-2.662,1.118c-2.189,0-3.623-1.638-3.623-4.174s1.449-4.222,3.623-4.222a3.38,3.38,0,0,1,2.741,1.213,4.19,4.19,0,0,1,.929,2.946A4.377,4.377,0,0,1,452.733,167.977Zm-1.717-5.293a1.155,1.155,0,0,0-2,.394,7.645,7.645,0,0,0,.047,3.828,1.167,1.167,0,0,0,1.071.662c.914,0,1.307-.819,1.307-2.725A3.749,3.749,0,0,0,451.016,162.685Z" transform="translate(-428.251 -157.25)" fill="#fff"/>
      <path id="Tracé_346" data-name="Tracé 346" d="M529.667,140.61a1.769,1.769,0,0,0-.866-.268.828.828,0,0,0-.882.913v1.15h2.048l-.536,1.449h-1.5v6.616h-2.063v-6.616h-.725v-1.449h.772a8.256,8.256,0,0,1-.079-1.1,2.323,2.323,0,0,1,2.6-2.5,3.643,3.643,0,0,1,1.906.5Z" transform="translate(-494.554 -138.799)" fill="#fff"/>
      <path id="Tracé_347" data-name="Tracé 347" d="M565.42,150.744a1.894,1.894,0,0,1-1.875-1.1,4.372,4.372,0,0,1-.189-1.811v-6.017a20.788,20.788,0,0,0-.11-2.426l2.158-.488a12,12,0,0,1,.11,2.1v6.285c0,1.386.016,1.575.142,1.8a.483.483,0,0,0,.425.221.7.7,0,0,0,.236-.032l.362,1.26A3.519,3.519,0,0,1,565.42,150.744Z" transform="translate(-526.653 -138.882)" fill="#fff"/>
      <path id="Tracé_348" data-name="Tracé 348" d="M595.829,167.977a3.294,3.294,0,0,1-2.662,1.118c-2.19,0-3.623-1.638-3.623-4.174s1.449-4.222,3.623-4.222a3.38,3.38,0,0,1,2.741,1.213,4.191,4.191,0,0,1,.929,2.946A4.378,4.378,0,0,1,595.829,167.977Zm-1.717-5.293a1.155,1.155,0,0,0-2,.394,7.642,7.642,0,0,0,.047,3.828,1.168,1.168,0,0,0,1.071.662c.914,0,1.307-.819,1.307-2.725A3.748,3.748,0,0,0,594.112,162.685Z" transform="translate(-548.809 -157.25)" fill="#fff"/>
      <path id="Tracé_349" data-name="Tracé 349" d="M650.161,162.532a1.191,1.191,0,0,0-.614-.158,1.682,1.682,0,0,0-1.292.677v5.7h-2.111v-5.387a7.31,7.31,0,0,0-.3-2.363l1.89-.5a2.6,2.6,0,0,1,.331,1.15,2.472,2.472,0,0,1,1.89-1.15,1.626,1.626,0,0,1,.787.173Z" transform="translate(-596.242 -157.082)" fill="#fff"/>
      <path id="Tracé_350" data-name="Tracé 350" d="M683.961,169.249a2.255,2.255,0,0,1-1.134-.977,3.912,3.912,0,0,1-.488.425,2.787,2.787,0,0,1-1.622.441c-1.8,0-2.772-.914-2.772-2.52,0-1.89,1.307-2.772,3.875-2.772.157,0,.3,0,.473.016v-.331c0-.9-.173-1.2-.945-1.2a4.443,4.443,0,0,0-2.331.914l-.9-1.512a7.774,7.774,0,0,1,1.307-.662,5.457,5.457,0,0,1,2.205-.473c1.355,0,2.284.5,2.6,1.4a3.733,3.733,0,0,1,.142,1.449l-.047,2.709a1.727,1.727,0,0,0,.756,1.8Zm-1.8-3.938c-1.465,0-1.969.268-1.969,1.229a.957.957,0,0,0,.929,1.055,1.529,1.529,0,0,0,1.1-.551l.031-1.733Z" transform="translate(-623.285 -157.167)" fill="#fff"/>
    </g>
  </g>
</svg>
